# xmcd CD database file
# Generated: Fri Dec 31 10:46:16 2004 by KSCD
# 
# Track frame offsets:
#       150
#       16488
#       46127
#       62500
#       83734
#       100284
#       113311
#       129506
#       148799
#       167349
#       190182
#       208605
#       239316
#       263172
#       285738
#       303561
#
# Disc length: 4345 seconds
#
# Revision: 2
# Processed by: cddbd v1.5.1PL0 Copyright (c) Steve Scherf et al.
# Submitted via: Kscd 1.3.3
#
DISCID=d410f710
DTITLE=Blues - CD_copies
DYEAR=1900
DGENRE=
TTITLE0=I'm A Blues Man
TTITLE1=Stevie Ray Vaughn - Six Strings Down
TTITLE2=Cheating In The Next Room
TTITLE3=Stevie Ray Vaughn - Tightrope
TTITLE4=Stevie Ray Vaughn - Pride and Joy
TTITLE5=Choking Kind
TTITLE6=Taxman
TTITLE7=Mary Had A L'il Lamb
TTITLE8=Robert Cray -Smoking Gun
TTITLE9=08 - Dirty Pool
TTITLE10=Friday Is My Day
TTITLE11=stevie ray vaughn-little_wing
TTITLE12=Down Home Blues
TTITLE13=Everybody Knows About My Good
TTITLE14=Chitlins Con Carne
TTITLE15=Lenny
EXTD=
EXTT0=
EXTT1=
EXTT2=
EXTT3=
EXTT4=
EXTT5=
EXTT6=
EXTT7=
EXTT8=
EXTT9=
EXTT10=
EXTT11=
EXTT12=
EXTT13=
EXTT14=
EXTT15=
PLAYORDER=
